<?xml version="1.0" standalone="no"?>
<!DOCTYPE svg PUBLIC "-//W3C//DTD SVG 1.1//EN" "http://www.w3.org/Graphics/SVG/1.1/DTD/svg11.dtd" >
<svg width="800px" height="800px" viewBox="-10 -5 1034 1034" xmlns="http://www.w3.org/2000/svg" xmlns:xlink="http://www.w3.org/1999/xlink" version="1.1">
  <path
     fill="#89b4fa"
     d="M 505.86589,-5 Q 400.39441,-3.8658982 317.60498,7.4751202 225.74273,19.95024 172.43995,44.90048 l -15.87741,9.072815 Q 138.41689,65.314314 120.27127,82.325842 95.321029,106.14198 77.1754,135.62863 53.359261,173.05399 40.884141,218.41807 25.006715,271.72085 25.006715,335.23055 v 41.96177 q 0,87.32585 1.134102,134.95812 3.402305,128.15351 20.413833,213.21115 21.547935,107.73967 70.31431,174.65168 56.70509,75.98482 151.96965,100.93513 123.6171,32.8889 238.16139,27.2184 52.16868,-3.4023 99.80095,-13.6092 34.02306,-7.9387 62.3756,-19.27978 l 21.54794,-9.07281 -4.53641,-85.05764 -24.95024,6.80461 q -31.75485,6.80461 -64.64381,11.34102 -46.49817,6.80461 -88.45994,4.5364 -60.10739,-1.1341 -90.72814,-7.93871 -48.76639,-9.07282 -75.98482,-34.02305 -32.88896,-28.35255 -39.69357,-81.65534 -2.2682,-15.87742 -2.2682,-32.88895 l 28.35254,6.80462 q 35.15716,6.8046 73.71663,11.34101 54.43688,7.93871 105.47146,10.20692 47.63227,2.2682 104.33737,-2.26821 36.29126,-2.2682 99.80097,-10.20692 63.5097,-7.9387 121.34889,-34.02305 55.57099,-26.08434 92.4293,-61.80855 36.85831,-35.7242 43.66292,-72.01547 10.20692,-51.03458 14.74332,-123.6171 4.53641,-52.16868 5.67052,-110.00787 v -46.49818 q 0,-63.5097 -15.87743,-116.81248 Q 960.64073,173.05399 936.82458,135.62863 918.67896,106.14198 893.72872,82.325842 876.71719,65.314314 857.43746,53.973295 843.82823,44.90048 841.56003,44.90048 789.39135,19.95024 697.5291,7.4751202 613.60556,-3.8658982 509.2682,-5 Z M 356.16445,170.78578 q 82.78943,0 123.6171,63.50971 l 27.21844,44.22997 27.21844,-44.22997 q 40.82767,-63.50971 123.6171,-63.50971 71.44842,0 114.54429,48.76639 43.09587,48.76638 43.09587,132.68991 V 623.29242 H 707.73601 V 360.18079 q 0,-83.92354 -69.1802,-83.92354 -78.25303,0 -78.25303,99.80097 V 520.08915 H 453.69721 V 376.05822 q 0,-99.80097 -78.25303,-99.80097 -69.18022,0 -69.18022,83.92354 V 623.29242 H 198.52429 V 352.24208 q 0,-83.92353 43.09587,-132.68991 43.09587,-48.76639 114.54429,-48.76639 z" />
</svg>
