<?xml version="1.0" standalone="no"?>
<!DOCTYPE svg PUBLIC "-//W3C//DTD SVG 1.1//EN" "http://www.w3.org/Graphics/SVG/1.1/DTD/svg11.dtd" >
<svg width="800px" height="800px" viewBox="-10 -5 1034 1034" xmlns="http://www.w3.org/2000/svg" xmlns:xlink="http://www.w3.org/1999/xlink" version="1.1">
  <path
     fill="#89b4fa"
     d="M 506.99998,-5 Q 367.10587,-5 245.45881,65.555292 128.67764,134.89411 60.555292,251.67529 -10,372.10587 -10,512.60822 -10,653.11057 60.555292,773.54116 128.67764,890.32233 245.45881,958.44471 367.10587,1029 506.99998,1029 646.89409,1029 768.54115,958.44471 885.32232,890.32233 953.44467,773.54116 1024,653.11057 1024,512.60822 1024,372.10587 953.44467,251.67529 885.32232,134.89411 768.54115,65.555292 646.89409,-5 506.99998,-5 Z m -82.72,315.06587 h 136.24471 q 43.79294,0 80.89529,21.28824 37.10235,21.28823 58.99882,57.17412 21.89647,35.88588 21.89647,79.07058 0,43.18471 -21.89647,79.07059 -21.89647,35.88588 -58.99882,57.17412 -37.10235,21.28823 -80.89529,21.28823 H 465.63998 L 330.61175,754.07763 V 401.30117 q 0,-37.71059 27.37059,-64.47294 27.37059,-26.76236 66.29764,-26.76236 z" />
</svg>
